<?xml version="1.0" encoding="UTF-8" standalone="no"?>
<!DOCTYPE svg PUBLIC "-//W3C//DTD SVG 1.1//EN" "http://www.w3.org/Graphics/SVG/1.1/DTD/svg11.dtd">
<svg width="60" height="60" viewBox="0 0 60 60" fill="none" xmlns="http://www.w3.org/2000/svg">
<path fill-rule="evenodd" clip-rule="evenodd" d="M7.5 12.5C6.11929 12.5 5 13.6193 5 15V45C5 46.3807 6.11929 47.5 7.5 47.5H52.5C53.8807 47.5 55 46.3807 55 45V15C55 13.6193 53.8807 12.5 52.5 12.5H7.5ZM0 15C0 10.8579 3.35786 7.5 7.5 7.5H52.5C56.6421 7.5 60 10.8579 60 15V45C60 49.1421 56.6421 52.5 52.5 52.5H7.5C3.35786 52.5 0 49.1421 0 45V15Z"/>
<path fill-rule="evenodd" clip-rule="evenodd" d="M0 25C0 23.6193 1.11929 22.5 2.5 22.5H57.5C58.8807 22.5 60 23.6193 60 25C60 26.3807 58.8807 27.5 57.5 27.5H2.5C1.11929 27.5 0 26.3807 0 25Z"/>
</svg>





